PathFileType	4	(X/Y/Z)	 2.8Hzhigh3min.trc
DataRate	CameraRate	NumFrames	NumMarkers	Units	OrigDataRate	OrigDataStartFrame	OrigNumFrames
200	200	11	35	m	200	751	1000
Frame#	Time	C7			LSH			RSH			MAN			RASI			LASI			HIPR			HIPL			RPSI			LPSI			COX			RTHI1			RTHI2			RTHI3			RTHI4			RSHA1			RSHA2			RSHA3			RSHA4			RHEEL			RMET5			RMET1			RTOE			LTHI1			LTHI2			LTHI3			LTHI4			LSHA1			LSHA2			LSHA3			LSHA4			LHEEL			LMET5			LMET1			LTOE			
		X1	Y1	Z1	X2	Y2	Z2	X3	Y3	Z3	X4	Y4	Z4	X5	Y5	Z5	X6	Y6	Z6	X7	Y7	Z7	X8	Y8	Z8	X9	Y9	Z9	X10	Y10	Z10	X11	Y11	Z11	X12	Y12	Z12	X13	Y13	Z13	X14	Y14	Z14	X15	Y15	Z15	X16	Y16	Z16	X17	Y17	Z17	X18	Y18	Z18	X19	Y19	Z19	X20	Y20	Z20	X21	Y21	Z21	X22	Y22	Z22	X23	Y23	Z23	X24	Y24	Z24	X25	Y25	Z25	X26	Y26	Z26	X27	Y27	Z27	X28	Y28	Z28	X29	Y29	Z29	X30	Y30	Z30	X31	Y31	Z31	X32	Y32	Z32	X33	Y33	Z33	X34	Y34	Z34	X35	Y35	Z35	
751	3.7550	-0.294599	1.426706	-0.548240	-0.225333	1.432660	-0.709740	-0.251913	1.412564	-0.383199	-0.165862	1.378219	-0.538304	-0.161947	0.991382	-0.430207	-0.147464	0.981182	-0.653515	-0.226554	1.039362	-0.406702	-0.200727	1.046877	-0.682925	-0.313149	1.016962	-0.499422	-0.306177	1.016478	-0.599169	-0.311711	1.026619	-0.548386	-0.228820	0.781938	-0.367952	-0.201965	0.728903	-0.368981	-0.143268	0.756616	-0.375946	-0.164455	0.814078	-0.376265	-0.245807	0.388972	-0.372137	-0.265307	0.350737	-0.376480	-0.207903	0.332260	-0.388582	-0.194414	0.370100	-0.386569	-0.361284	0.128261	-0.439431	-0.235100	0.031499	-0.391178	-0.205167	0.036750	-0.466565	-0.181666	0.028928	-0.457429	-0.218703	0.788691	-0.718889	-0.198014	0.730716	-0.716677	-0.136607	0.747237	-0.705250	-0.148263	0.806260	-0.706530	-0.268953	0.373580	-0.714681	-0.285006	0.336497	-0.713592	-0.224752	0.317818	-0.714011	-0.216342	0.361171	-0.715594	-0.377010	0.128903	-0.682315	-0.250544	0.040640	-0.721098	-0.217581	0.040155	-0.655109	-0.197003	0.029335	-0.654732	
752	3.7600	-0.294754	1.421333	-0.548372	-0.225466	1.427747	-0.709680	-0.251557	1.407693	-0.383192	-0.165844	1.372764	-0.538237	-0.162258	0.986261	-0.430234	-0.147903	0.976119	-0.653668	-0.227010	1.033912	-0.406662	-0.201476	1.041429	-0.683116	-0.313793	1.011255	-0.499307	-0.306847	1.010784	-0.599074	-0.312223	1.020906	-0.548256	-0.228587	0.776367	-0.367977	-0.201417	0.723482	-0.369015	-0.142912	0.751531	-0.376191	-0.164427	0.808877	-0.376414	-0.244991	0.383872	-0.372178	-0.264885	0.345977	-0.376631	-0.207623	0.327134	-0.389277	-0.193834	0.364872	-0.386950	-0.364122	0.124785	-0.439643	-0.235852	0.030650	-0.390304	-0.205765	0.036315	-0.466564	-0.181749	0.028704	-0.457806	-0.217718	0.782727	-0.719136	-0.196691	0.724904	-0.716803	-0.135483	0.741788	-0.704742	-0.147513	0.800763	-0.706124	-0.267908	0.369166	-0.714970	-0.284311	0.332213	-0.713921	-0.224216	0.312996	-0.713980	-0.215415	0.356280	-0.715585	-0.378907	0.125398	-0.683112	-0.251697	0.037868	-0.722230	-0.218748	0.038708	-0.655129	-0.197903	0.028746	-0.654452	
753	3.7650	-0.295021	1.415756	-0.548517	-0.225673	1.422780	-0.709623	-0.251255	1.402741	-0.383212	-0.165826	1.367201	-0.538188	-0.162558	0.981012	-0.430230	-0.148308	0.970952	-0.653855	-0.227467	1.028262	-0.406553	-0.202211	1.035762	-0.683363	-0.314543	1.005358	-0.499224	-0.307574	1.004886	-0.599021	-0.312767	1.015000	-0.548164	-0.228565	0.770656	-0.368067	-0.201047	0.717930	-0.368974	-0.142728	0.746351	-0.376076	-0.164593	0.803564	-0.376313	-0.244221	0.378782	-0.372171	-0.264403	0.341145	-0.376969	-0.207360	0.322036	-0.390005	-0.193282	0.359664	-0.387335	-0.366888	0.121532	-0.439738	-0.236505	0.030118	-0.389638	-0.206294	0.036137	-0.466498	-0.181756	0.028548	-0.457989	-0.216828	0.776532	-0.719453	-0.195438	0.718857	-0.716997	-0.134425	0.736126	-0.704456	-0.146842	0.795041	-0.705906	-0.267114	0.364653	-0.715292	-0.283838	0.327830	-0.714276	-0.223893	0.308128	-0.714003	-0.214733	0.351339	-0.715636	-0.380914	0.121910	-0.683957	-0.252542	0.035742	-0.723518	-0.219457	0.037808	-0.655375	-0.198340	0.028415	-0.654401	
754	3.7700	-0.295401	1.410019	-0.548673	-0.225962	1.417795	-0.709586	-0.251021	1.397735	-0.383243	-0.165778	1.361580	-0.538162	-0.162854	0.975700	-0.430176	-0.148686	0.965741	-0.654085	-0.227945	1.022436	-0.406361	-0.202925	1.029894	-0.683675	-0.315412	0.999297	-0.499174	-0.308369	0.998804	-0.599025	-0.313364	1.008949	-0.548109	-0.228758	0.764939	-0.368186	-0.200872	0.712378	-0.368851	-0.142705	0.741216	-0.375480	-0.164954	0.798273	-0.375931	-0.243540	0.373917	-0.371901	-0.263835	0.336400	-0.377375	-0.207103	0.317080	-0.390746	-0.192696	0.354613	-0.387695	-0.369463	0.118450	-0.439819	-0.237093	0.029728	-0.389199	-0.206736	0.036066	-0.466435	-0.181746	0.028437	-0.458080	-0.216050	0.770168	-0.719844	-0.194294	0.712637	-0.717267	-0.133456	0.730299	-0.704392	-0.146257	0.789148	-0.705913	-0.266593	0.360148	-0.715619	-0.283617	0.323461	-0.714636	-0.223819	0.303309	-0.714085	-0.214321	0.346442	-0.715748	-0.382992	0.118587	-0.684839	-0.253233	0.034176	-0.724730	-0.219957	0.037316	-0.655725	-0.198526	0.028219	-0.654475	
755	3.7750	-0.295897	1.404202	-0.548843	-0.226341	1.412842	-0.709597	-0.250866	1.392707	-0.383257	-0.165671	1.355948	-0.538158	-0.163155	0.970397	-0.430059	-0.149046	0.960549	-0.654378	-0.228474	1.016468	-0.406068	-0.203612	1.023848	-0.684052	-0.316407	0.993096	-0.499161	-0.309236	0.992565	-0.599081	-0.314031	1.002789	-0.548096	-0.229172	0.759373	-0.368338	-0.200913	0.706988	-0.368650	-0.142882	0.736229	-0.374542	-0.165515	0.793147	-0.375290	-0.242873	0.369333	-0.371486	-0.263193	0.331858	-0.377776	-0.206786	0.312385	-0.391468	-0.192082	0.349813	-0.388077	-0.371824	0.115499	-0.440032	-0.237637	0.029390	-0.388986	-0.207115	0.036004	-0.466474	-0.181726	0.028345	-0.458156	-0.215398	0.763821	-0.720314	-0.193301	0.706421	-0.717583	-0.132613	0.724462	-0.704521	-0.145764	0.783246	-0.706127	-0.266328	0.355778	-0.715951	-0.283644	0.319235	-0.714995	-0.223995	0.298645	-0.714227	-0.214162	0.341691	-0.715910	-0.385053	0.115495	-0.685699	-0.253934	0.033052	-0.725775	-0.220369	0.037112	-0.656113	-0.198600	0.028133	-0.654614	
756	3.7800	-0.296502	1.398404	-0.549025	-0.226800	1.407950	-0.709685	-0.250802	1.387703	-0.383222	-0.165477	1.350404	-0.538157	-0.163481	0.965187	-0.429841	-0.149388	0.955441	-0.654749	-0.229099	1.010409	-0.405685	-0.204277	1.017659	-0.684489	-0.317511	0.986796	-0.499203	-0.310174	0.986208	-0.599187	-0.314771	0.996554	-0.548138	-0.229808	0.754121	-0.368496	-0.201195	0.701914	-0.368407	-0.143297	0.731536	-0.373388	-0.166277	0.788323	-0.374451	-0.242155	0.365064	-0.371056	-0.262505	0.327599	-0.378109	-0.206412	0.307996	-0.392180	-0.191433	0.345308	-0.388479	-0.373888	0.112576	-0.440525	-0.238202	0.029051	-0.388919	-0.207398	0.035944	-0.466610	-0.181649	0.028268	-0.458232	-0.214903	0.757736	-0.720815	-0.192524	0.700460	-0.717938	-0.131953	0.718830	-0.704793	-0.145387	0.777544	-0.706524	-0.266275	0.351666	-0.716274	-0.283876	0.315268	-0.715325	-0.224385	0.294233	-0.714394	-0.214221	0.337198	-0.716104	-0.387055	0.112570	-0.686472	-0.254640	0.032262	-0.726615	-0.220758	0.037073	-0.656479	-0.198657	0.028095	-0.654791	
757	3.7850	-0.297202	1.392753	-0.549209	-0.227307	1.403172	-0.709863	-0.250832	1.382777	-0.383107	-0.165191	1.345014	-0.538169	-0.163843	0.960168	-0.429495	-0.149711	0.950485	-0.655206	-0.229862	1.004314	-0.405224	-0.204924	1.011372	-0.684975	-0.318708	0.980463	-0.499308	-0.311168	0.979799	-0.599339	-0.315555	0.990350	-0.548226	-0.230647	0.749350	-0.368659	-0.201728	0.697296	-0.368169	-0.143932	0.727265	-0.372067	-0.167228	0.783922	-0.373515	-0.241396	0.361068	-0.370681	-0.261841	0.323687	-0.378334	-0.206035	0.303940	-0.392902	-0.190769	0.341138	-0.388873	-0.375687	0.109744	-0.441290	-0.238759	0.028723	-0.388892	-0.207538	0.035891	-0.466719	-0.181510	0.028199	-0.458255	-0.214597	0.752190	-0.721340	-0.192015	0.694999	-0.718306	-0.131523	0.713614	-0.705154	-0.145158	0.772284	-0.707022	-0.266378	0.347884	-0.716561	-0.284245	0.311635	-0.715583	-0.224906	0.290177	-0.714546	-0.214429	0.333056	-0.716309	-0.388977	0.109724	-0.687051	-0.255307	0.031657	-0.727217	-0.221150	0.037091	-0.656779	-0.198738	0.028080	-0.654974	
758	3.7900	-0.297965	1.387407	-0.549383	-0.227837	1.398570	-0.710146	-0.250940	1.377990	-0.382886	-0.164821	1.339846	-0.538198	-0.164247	0.955431	-0.429003	-0.150013	0.945764	-0.655739	-0.230810	0.998270	-0.404721	-0.205551	1.005052	-0.685491	-0.319934	0.974217	-0.499519	-0.312184	0.973446	-0.599494	-0.316324	0.984345	-0.548355	-0.231654	0.745140	-0.368832	-0.202502	0.693221	-0.367998	-0.144779	0.723458	-0.370794	-0.168323	0.780023	-0.372587	-0.240667	0.357381	-0.370407	-0.261256	0.320140	-0.378528	-0.205704	0.300246	-0.393639	-0.190151	0.337327	-0.389262	-0.377238	0.107033	-0.442302	-0.239247	0.028449	-0.388890	-0.207582	0.035840	-0.466797	-0.181332	0.028142	-0.458236	-0.214498	0.747401	-0.721828	-0.191808	0.690265	-0.718667	-0.131352	0.709017	-0.705559	-0.145088	0.767662	-0.707540	-0.266574	0.344465	-0.716786	-0.284674	0.308344	-0.715754	-0.225477	0.286507	-0.714642	-0.214725	0.329314	-0.716477	-0.390765	0.106964	-0.687344	-0.255946	0.031141	-0.727623	-0.221500	0.037117	-0.656988	-0.198808	0.028068	-0.655113	
759	3.7950	-0.298740	1.382541	-0.549530	-0.228354	1.394222	-0.710523	-0.251099	1.373427	-0.382560	-0.164397	1.334997	-0.538255	-0.164702	0.951068	-0.428366	-0.150288	0.941354	-0.656329	-0.231987	0.992393	-0.404199	-0.206175	0.998782	-0.686014	-0.321125	0.968223	-0.499857	-0.313166	0.967329	-0.599609	-0.317016	0.978726	-0.548535	-0.232773	0.741519	-0.369045	-0.203467	0.689717	-0.367940	-0.145817	0.720116	-0.369700	-0.169519	0.776642	-0.371737	-0.240065	0.354051	-0.370316	-0.260834	0.316959	-0.378787	-0.205456	0.296941	-0.394360	-0.189704	0.333897	-0.389704	-0.378587	0.104515	-0.443525	-0.239693	0.028234	-0.388959	-0.207575	0.035791	-0.466876	-0.181147	0.028090	-0.458189	-0.214621	0.743541	-0.722224	-0.191921	0.686413	-0.718985	-0.131458	0.705194	-0.705984	-0.145193	0.763832	-0.708027	-0.266830	0.341383	-0.716939	-0.285117	0.305366	-0.715829	-0.226037	0.283217	-0.714617	-0.215064	0.325964	-0.716546	-0.392404	0.104305	-0.687304	-0.256565	0.030718	-0.727892	-0.221764	0.037133	-0.657142	-0.198846	0.028056	-0.655242	
760	3.8000	-0.299462	1.378315	-0.549623	-0.228802	1.390198	-0.710949	-0.251274	1.369188	-0.382162	-0.163952	1.330562	-0.538349	-0.165199	0.947172	-0.427554	-0.150528	0.937340	-0.656934	-0.233443	0.986814	-0.403722	-0.206821	0.992705	-0.686517	-0.322202	0.962692	-0.500326	-0.314051	0.961675	-0.599675	-0.317570	0.973694	-0.548760	-0.233977	0.738475	-0.369345	-0.204581	0.686754	-0.368008	-0.146983	0.717264	-0.368738	-0.170768	0.773755	-0.370990	-0.239671	0.351107	-0.370448	-0.260630	0.314180	-0.379141	-0.205368	0.294054	-0.395041	-0.189447	0.330905	-0.390094	-0.379730	0.102257	-0.444889	-0.240145	0.028073	-0.389109	-0.207540	0.035753	-0.466959	-0.180968	0.028053	-0.458122	-0.214973	0.740544	-0.722487	-0.192337	0.683386	-0.719259	-0.131827	0.702100	-0.706430	-0.145484	0.760751	-0.708469	-0.267148	0.338596	-0.716966	-0.285568	0.302658	-0.715772	-0.226572	0.280281	-0.714423	-0.215443	0.322986	-0.716472	-0.393916	0.101777	-0.686900	-0.257130	0.030396	-0.728013	-0.221957	0.037134	-0.657243	-0.198861	0.028043	-0.655363	
761	3.8050	-0.300065	1.374863	-0.549639	-0.229153	1.386610	-0.711369	-0.251421	1.365373	-0.381739	-0.163544	1.326653	-0.538485	-0.165721	0.943826	-0.426608	-0.150730	0.933805	-0.657489	-0.235132	0.981715	-0.403324	-0.207501	0.987055	-0.686950	-0.323110	0.957872	-0.500899	-0.314774	0.956731	-0.599690	-0.317940	0.969486	-0.549017	-0.235217	0.735999	-0.369747	-0.205798	0.684318	-0.368197	-0.148227	0.714858	-0.367877	-0.172025	0.771345	-0.370342	-0.239592	0.348584	-0.370764	-0.260703	0.311827	-0.379654	-0.205481	0.291623	-0.395657	-0.189444	0.328390	-0.390441	-0.380713	0.100324	-0.446309	-0.240607	0.027966	-0.389315	-0.207485	0.035720	-0.467046	-0.180803	0.028030	-0.458049	-0.215524	0.738214	-0.722619	-0.192992	0.680996	-0.719456	-0.132400	0.699588	-0.706891	-0.145940	0.758266	-0.708873	-0.267551	0.336075	-0.716827	-0.286050	0.300195	-0.715544	-0.227101	0.277686	-0.714058	-0.215882	0.320353	-0.716238	-0.395282	0.099454	-0.686112	-0.257677	0.030161	-0.727984	-0.222099	0.037125	-0.657285	-0.198860	0.028031	-0.655471	
